HIERARCHY
ROOT Hips
{
 OFFSET 0.000000 0.000000 0.000000
 CHANNELS 6 Xposition Yposition Zposition Yrotation Xrotation Zrotation
 JOINT Chest
 {
  OFFSET 0.000000 10.080317 -0.001081
  CHANNELS 3 Yrotation Xrotation Zrotation
  JOINT Chest2
  {
   OFFSET 0.000000 11.096852 0.001963
   CHANNELS 3 Yrotation Xrotation Zrotation
   JOINT Chest3
   {
    OFFSET 0.000000 10.026525 0.000000
    CHANNELS 3 Yrotation Xrotation Zrotation
    JOINT Chest4
    {
     OFFSET 0.000000 10.026525 0.000000
     CHANNELS 3 Yrotation Xrotation Zrotation
     JOINT Neck
     {
      OFFSET 0.000000 14.108171 0.000000
      CHANNELS 3 Yrotation Xrotation Zrotation
      JOINT Head
      {
       OFFSET 0.000000 9.333493 0.004668
       CHANNELS 3 Yrotation Xrotation Zrotation
       End Site
       {
        OFFSET 0.000000 17.851786 0.002438
       }
      }
     }
     JOINT RightCollar
     {
      OFFSET -3.071622 7.873185 0.000000
      CHANNELS 3 Yrotation Xrotation Zrotation
      JOINT RightShoulder
      {
       OFFSET -14.378659 0.000000 0.000000
       CHANNELS 3 Yrotation Xrotation Zrotation
       JOINT RightElbow
       {
        OFFSET -30.778728 0.000000 0.000000
        CHANNELS 3 Yrotation Xrotation Zrotation
        JOINT RightWrist
        {
         OFFSET -25.164217 0.000000 0.000000
         CHANNELS 3 Yrotation Xrotation Zrotation
         End Site
         {
          OFFSET -18.796788 0.000000 0.000000
         }
        }
       }
      }
     }
     JOINT LeftCollar
     {
      OFFSET 3.071622 7.873185 0.000000
      CHANNELS 3 Yrotation Xrotation Zrotation
      JOINT LeftShoulder
      {
       OFFSET 14.378659 0.000000 0.000000
       CHANNELS 3 Yrotation Xrotation Zrotation
       JOINT LeftElbow
       {
        OFFSET 30.778728 0.000000 0.000000
        CHANNELS 3 Yrotation Xrotation Zrotation
        JOINT LeftWrist
        {
         OFFSET 25.164217 0.000000 0.000000
         CHANNELS 3 Yrotation Xrotation Zrotation
         End Site
         {
          OFFSET 18.796788 0.000000 0.000000
         }
        }
       }
      }
     }
    }
   }
  }
 }
 JOINT RightHip
 {
  OFFSET -8.194923 0.005295 0.000540
  CHANNELS 3 Yrotation Xrotation Zrotation
  JOINT RightKnee
  {
   OFFSET 0.000000 -42.473320 -0.000511
   CHANNELS 3 Yrotation Xrotation Zrotation
   JOINT RightAnkle
   {
    OFFSET 0.000000 -41.474259 -0.000865
    CHANNELS 3 Yrotation Xrotation Zrotation
    JOINT RightToe
    {
     OFFSET 0.000000 -7.354994 16.712725
     CHANNELS 3 Yrotation Xrotation Zrotation
     End Site
     {
      OFFSET 0.000000 -1.553903 6.764158
     }
    }
   }
  }
 }
 JOINT LeftHip
 {
  OFFSET 8.194923 0.005295 0.000540
  CHANNELS 3 Yrotation Xrotation Zrotation
  JOINT LeftKnee
  {
   OFFSET 0.000000 -42.473320 -0.000511
   CHANNELS 3 Yrotation Xrotation Zrotation
   JOINT LeftAnkle
   {
    OFFSET 0.000000 -41.474259 -0.000865
    CHANNELS 3 Yrotation Xrotation Zrotation
    JOINT LeftToe
    {
     OFFSET 0.000000 -7.354994 16.712725
     CHANNELS 3 Yrotation Xrotation Zrotation
     End Site
     {
      OFFSET 0.000000 -1.553903 6.764158
     }
    }
   }
  }
 }
}
MOTION
Frames: 10
Frame Time: 0.016667
0.000000 91.111157 0.000000 0.000000 -5.826342 0.000000 0.000000 11.116423 0.000000 0.000000 -5.290081 0.000000 0.000000 0.000000 0.000000 0.000000 0.000000 0.000000 0.000000 12.665069 0.000000 0.000000 0.575450 0.000000 0.000000 0.000000 0.000000 0.000000 0.000000 0.000000 2.337306 0.000000 0.000000 -2.337306 0.000000 0.000000 0.000000 0.000000 0.000000 0.000000 0.000000 0.000000 -2.337306 0.000000 0.000000 2.337306 0.000000 0.000000 0.000000 8.578828 0.000000 0.000000 1.905768 0.000000 0.000000 -4.658254 0.000000 0.000000 0.000000 0.000000 0.000000 8.578828 0.000000 0.000000 1.905768 0.000000 0.000000 -4.658254 0.000000 0.000000 0.000000 0.000000
-44.660509 92.464609 81.601583 -2.997740 -4.387994 0.140345 -0.761282 2.819538 -0.540756 -0.339142 1.253268 -0.259620 -0.339142 1.253268 -0.259620 -0.253814 0.940096 -0.194012 -1.264465 17.704554 1.283763 -2.766245 -3.261242 2.795300 0.434939 -2.633609 10.233115 -3.385761 -1.080744 69.516863 20.184129 18.586971 13.886091 -3.805584 2.507412 -7.142793 -6.726103 -1.519060 -6.573171 -5.794719 -8.608787 -72.184986 -14.477127 25.003132 -18.053998 4.190486 4.653925 14.835075 -4.911421 5.505345 -5.691281 0.554494 2.459798 -0.353005 -3.674876 -3.436480 5.632281 -0.109912 0.136113 -0.067277 8.009167 9.691018 5.241606 -1.444497 2.745304 -0.441950 1.042915 -7.050649 -4.008807 0.092089 -0.005731 -0.019871
-44.679054 92.464148 81.632164 -2.890258 -4.405830 0.116943 -0.746074 2.799688 -0.551970 -0.331932 1.244255 -0.265275 -0.331932 1.244255 -0.265275 -0.248399 0.933336 -0.198273 -1.265212 17.693922 1.295920 -2.772062 -3.280525 2.818294 0.389031 -2.587395 10.212359 -3.425535 -1.035355 69.751526 19.955118 18.596165 13.622050 -3.738044 2.464642 -7.298585 -6.649642 -1.506160 -6.491200 -5.807997 -8.402445 -72.186096 -13.671924 24.871681 -17.397155 4.220256 4.580583 14.804804 -4.772587 5.589386 -5.638023 0.385377 2.442442 -0.369164 -3.750648 -3.454231 5.633368 -0.103790 0.126443 -0.060214 7.950983 9.700936 5.277966 -1.477632 2.767032 -0.436533 1.040330 -7.072300 -4.011875 0.088773 -0.005754 -0.019443
-44.691044 92.464282 81.662374 -2.784089 -4.414754 0.098612 -0.734988 2.774412 -0.558647 -0.325153 1.233100 -0.268359 -0.325153 1.233100 -0.268359 -0.243314 0.924968 -0.200605 -1.264266 17.687525 1.299469 -2.771716 -3.292308 2.824714 0.336291 -2.528896 10.178989 -3.460412 -0.993203 69.933841 19.873167 18.610515 13.466040 -3.700480 2.470003 -7.405439 -6.552882 -1.488739 -6.422090 -5.779260 -8.226913 -72.180803 -13.017529 24.758792 -16.845242 4.215206 4.516116 14.867978 -4.610983 5.673391 -5.598232 0.195385 2.407011 -0.375921 -3.822192 -3.460341 5.638573 -0.100482 0.116050 -0.056398 7.871906 9.704389 5.297092 -1.496268 2.789681 -0.429760 1.048921 -7.092090 -4.009768 0.083136 -0.010118 -0.019672
-44.702642 92.462350 81.686799 -2.671281 -4.407145 0.079627 -0.715053 2.742229 -0.565556 -0.314952 1.218720 -0.272758 -0.314952 1.218720 -0.272758 -0.235661 0.914181 -0.203933 -1.271195 17.678601 1.304674 -2.786530 -3.308445 2.836933 0.258809 -2.502198 10.164469 -3.553420 -0.955354 70.057302 19.900561 18.678123 13.429660 -3.694329 2.486526 -7.440481 -6.464286 -1.474064 -6.329914 -5.718882 -8.057240 -72.177002 -12.497337 24.607483 -16.396757 4.178325 4.480340 14.990686 -4.519104 5.736068 -5.577102 0.063579 2.362878 -0.354007 -3.878718 -3.465238 5.633818 -0.095987 0.110540 -0.057447 7.761512 9.695492 5.309728 -1.517958 2.802877 -0.422238 1.077233 -7.114788 -4.007872 0.080622 -0.007193 -0.020424
-44.714292 92.459447 81.711227 -2.565343 -4.379372 0.060962 -0.698684 2.714559 -0.572793 -0.306007 1.206221 -0.277034 -0.306007 1.206221 -0.277034 -0.228950 0.904805 -0.207164 -1.275213 17.655041 1.311994 -2.797157 -3.351778 2.852526 0.189980 -2.509331 10.144582 -3.628295 -0.925374 70.149124 19.991254 18.763403 13.491234 -3.690843 2.511851 -7.431118 -6.370540 -1.492409 -6.233950 -5.606049 -7.889369 -72.121389 -12.163910 24.400319 -16.092498 4.185120 4.455590 15.021431 -4.504419 5.770769 -5.565880 0.004072 2.317487 -0.329350 -3.916495 -3.469530 5.636369 -0.094537 0.105609 -0.064168 7.668902 9.682888 5.332553 -1.557685 2.782689 -0.431503 1.102607 -7.125103 -4.008132 0.079815 -0.004182 -0.013156
-44.722289 92.455980 81.735021 -2.461073 -4.343409 0.054798 -0.680414 2.683417 -0.579447 -0.297088 1.192169 -0.279850 -0.297088 1.192169 -0.279850 -0.222262 0.894263 -0.209300 -1.288146 17.628084 1.309003 -2.820845 -3.401464 2.852240 0.143259 -2.539235 10.113667 -3.696281 -0.927146 70.209633 20.106407 18.913830 13.592344 -3.699927 2.548020 -7.435926 -6.268078 -1.515761 -6.148749 -5.494541 -7.725998 -72.059276 -11.955333 24.180826 -15.911342 4.204798 4.452352 14.970884 -4.497844 5.789078 -5.562515 -0.053705 2.283715 -0.313644 -3.960548 -3.481981 5.638689 -0.091549 0.105283 -0.064985 7.565004 9.668038 5.332762 -1.588408 2.755779 -0.431346 1.135272 -7.133830 -4.011540 0.075755 0.000015 -0.007242
-44.729141 92.451009 81.759547 -2.354255 -4.297569 0.049758 -0.661525 2.655309 -0.591385 -0.287930 1.179822 -0.284137 -0.287930 1.179822 -0.284137 -0.215391 0.885001 -0.212539 -1.301410 17.593550 1.306722 -2.845630 -3.465178 2.853625 0.098481 -2.596057 10.097006 -3.717563 -0.891013 70.238180 20.266728 19.065800 13.717097 -3.681374 2.583290 -7.429942 -6.153472 -1.569716 -6.048911 -5.332170 -7.576701 -72.002221 -11.857007 24.020977 -15.847864 4.194472 4.465684 14.915078 -4.535624 5.793947 -5.558890 -0.101005 2.252305 -0.308184 -3.981231 -3.505040 5.636995 -0.086887 0.110903 -0.058210 7.492345 9.643297 5.333939 -1.649070 2.723371 -0.430332 1.172366 -7.140910 -4.008703 0.069408 0.004185 -0.007509
-44.739240 92.445667 81.785853 -2.243816 -4.260327 0.054815 -0.648995 2.625046 -0.608399 -0.281528 1.166970 -0.292231 -0.281528 1.166970 -0.292231 -0.210581 0.875362 -0.218628 -1.312690 17.570856 1.305820 -2.866853 -3.506933 2.856513 0.061202 -2.635609 10.084103 -3.704399 -0.862352 70.283100 20.418452 19.172728 13.832448 -3.670519 2.584339 -7.415278 -6.041125 -1.622686 -5.931317 -5.241637 -7.427724 -71.934509 -11.814261 23.895921 -15.870387 4.162433 4.454801 14.883823 -4.579168 5.794577 -5.569671 -0.132531 2.251316 -0.308529 -3.989657 -3.554101 5.642727 -0.081237 0.119004 -0.050723 7.426499 9.629630 5.326197 -1.710966 2.687647 -0.414908 1.187239 -7.144216 -4.022386 0.069088 0.004570 -0.002857
-44.746496 92.441185 81.810829 -2.142703 -4.220567 0.058232 -0.629397 2.617203 -0.617953 -0.271681 1.164053 -0.297866 -0.271681 1.164053 -0.297866 -0.203186 0.873172 -0.222874 -1.334452 17.533726 1.299534 -2.906054 -3.575300 2.853508 0.002791 -2.705743 10.062360 -3.705001 -0.846464 70.350266 20.564873 19.274635 13.934162 -3.663407 2.581089 -7.398668 -5.952392 -1.732365 -5.824659 -5.236857 -7.267135 -71.869609 -11.846259 23.803518 -15.922857 4.110009 4.471201 14.857249 -4.596581 5.776052 -5.561441 -0.154590 2.286767 -0.315253 -4.024062 -3.637944 5.652909 -0.083805 0.140389 -0.053393 7.391237 9.606029 5.330204 -1.780350 2.660718 -0.418159 1.190178 -7.149074 -4.025682 0.065139 0.001904 0.002293
